<?xml version="1.0" ?><svg xmlns="http://www.w3.org/2000/svg" xmlns:xlink="http://www.w3.org/1999/xlink" version="1.1" id="Layer_1" viewBox="0 0 512 512" style="enable-background:new 0 0 512 512;" xml:space="preserve"><path d="M448,307.2l-20-25.4c1.3-8.5,1.9-17.2,1.9-25.8c0-8.6-0.6-17.3-1.9-25.8l20-25.4c8.3-10.5,9.3-24.8,2.6-36.3l-21.5-37.2  c-6.7-11.6-19.6-17.8-32.8-15.9l-32,4.6c-13.6-10.8-28.6-19.5-44.7-25.8l-12-30c-5-12.4-16.8-20.4-30.2-20.4h-42.9  c-13.4,0-25.2,8-30.2,20.4l-12,30c-16.1,6.3-31.1,15-44.7,25.8l-32-4.6c-13.2-1.9-26.1,4.3-32.8,15.9l-21.5,37.2  c-6.7,11.6-5.7,25.8,2.6,36.3l20,25.4c-1.3,8.5-1.9,17.2-1.9,25.8c0,8.6,0.6,17.3,1.9,25.8l-20,25.4c-8.3,10.5-9.3,24.8-2.6,36.3  l21.5,37.2c6.7,11.6,19.5,17.8,32.8,15.9l32-4.6c13.6,10.8,28.6,19.5,44.7,25.8l12,30c5,12.4,16.8,20.4,30.2,20.4h42.9  c13.4,0,25.2-8,30.2-20.4l12-30c16.1-6.3,31.1-15,44.7-25.8l32,4.6c13.2,1.9,26.1-4.3,32.8-15.9l21.5-37.2  C457.3,332,456.3,317.7,448,307.2z M338.1,256c0,45.3-36.8,82.1-82.1,82.1s-82.1-36.8-82.1-82.1s36.8-82.1,82.1-82.1  S338.1,210.7,338.1,256z"/></svg>